<?xml version="1.0" standalone="no"?>
<!DOCTYPE svg PUBLIC "-//W3C//DTD SVG 1.1//EN" "http://www.w3.org/Graphics/SVG/1.1/DTD/svg11.dtd">
<svg xmlns="http://www.w3.org/2000/svg">
<metadata>Copyright (C) 2020 by original authors @ fontello.com</metadata>
<defs>
<font id="fontello" horiz-adv-x="1000" >
<font-face font-family="fontello" font-weight="400" font-stretch="normal" units-per-em="1000" ascent="850" descent="-150" />
<missing-glyph horiz-adv-x="1000" />
<glyph glyph-name="badge" unicode="&#xe800;" d="M575-147l-181 81-180-81a27 27 0 0 0-12-3 29 29 0 0 0-16 5 29 29 0 0 0-13 24v251a394 394 0 1 0 442 0v-251a29 29 0 0 0-28-29 28 28 0 0 0-12 3z m-169 139l152-69v174a387 387 0 0 0-45-17 13 13 0 0 1-2-1 53 53 0 0 1-6-2l-4-1c-2-1-4-1-5-1s-4-1-6-2a38 38 0 0 0-4-1c-2 0-4-1-6-1-1 0-2-1-3-1-3 0-5-1-7-1a13 13 0 0 1-3-1c-3 0-5-1-8-1-1 0-1 0-2-1-3 0-5 0-8-1a12 12 0 0 1-3 0c-2-1-5-1-7-1a10 10 0 0 0-3 0c-2-1-5-1-8-1a17 17 0 0 1-2 0l-8-1h-3c-3 0-5 0-8 0a11 11 0 0 0-2 0c-4 0-7 0-11 0s-7 0-10 0a10 10 0 0 0-3 0c-2 0-5 0-8 0h-2l-8 1a17 17 0 0 1-2 0c-3 0-6 0-8 1a10 10 0 0 0-3 0c-3 0-5 1-8 1a12 12 0 0 1-2 0c-3 1-5 1-8 1-1 1-2 1-2 1-3 0-5 1-8 1a14 14 0 0 1-3 1c-2 0-4 1-7 1-1 0-2 1-3 1l-6 1a39 39 0 0 0-4 1c-2 1-4 1-6 2s-3 1-5 1l-4 1c-2 1-4 1-6 2a13 13 0 0 1-2 1 388 388 0 0 0-45 17v-173l152 68a29 29 0 0 0 12 2 29 29 0 0 0 11-2z m-348 464a337 337 0 0 1 226-318c2-1 3-1 4-1 2-1 3-2 5-2s4-1 6-2c2 0 3-1 5-1 3-1 5-2 8-2 1-1 2-1 3-1 3-1 5-2 8-2a8 8 0 0 0 2-1c4 0 7-1 11-2a5 5 0 0 0 1 0c3 0 6-1 9-1a12 12 0 0 0 3-1c3 0 6 0 10-1h0q6 0 11-1a12 12 0 0 1 2 0c3 0 6 0 9 0a19 19 0 0 0 3 0c3 0 7-1 10-1s7 1 11 1a18 18 0 0 0 3 0c3 0 5 0 8 0h3c3 1 7 1 10 1h1c3 1 7 1 10 1a10 10 0 0 0 2 1c3 0 7 1 10 1a4 4 0 0 0 1 0c3 1 7 2 10 2a8 8 0 0 0 2 1c3 0 6 1 8 2 2 0 3 0 4 1 2 0 5 1 8 2 1 0 3 1 4 1 2 1 4 1 6 2s4 1 6 2c1 0 2 0 3 1a337 337 0 1 1-446 318z m314-219l-54 87-102 4a26 26 0 0 0-22 37l48 91-48 90a26 26 0 0 0 1 25 26 26 0 0 0 21 13l102 3 54 88a26 26 0 0 0 44 0l54-88 103-3a26 26 0 0 0 22-38l-49-90 49-91a26 26 0 0 0-22-37l-103-4-54-87a26 26 0 0 0-43 0z" horiz-adv-x="788" />

<glyph glyph-name="bin" unicode="&#xe801;" d="M694 750h-179v67a33 33 0 0 1-32 33h-239a33 33 0 0 1-33-33v-67h-178a33 33 0 0 1-33-33v-100a33 33 0 0 1 33-33h661a33 33 0 0 1 33 33v100a33 33 0 0 1-33 33z m-244 0h-174v35h174z m-405-231l27-638a33 33 0 0 1 33-31h517a33 33 0 0 1 32 31l27 638z m220-537a33 33 0 1 0-65 0v404a33 33 0 0 0 65 0z m131 0a33 33 0 1 0-65 0v404a33 33 0 0 0 65 0z m131 0a33 33 0 1 0-65 0v404a33 33 0 0 0 65 0z" horiz-adv-x="727" />

<glyph glyph-name="clock" unicode="&#xe802;" d="M1000 350a500 500 0 1 1-500-500 500 500 0 0 1 500 500z m-547-81l1 367 66 0-1-301 231 0 0-66-297 0z" horiz-adv-x="1000" />

<glyph glyph-name="close" unicode="&#xe803;" d="M610 350l374 374a55 55 0 0 1 0 77l-32 33a55 55 0 0 1-78 0l-374-374-374 374a55 55 0 0 1-77 0l-33-33a55 55 0 0 1 0-77l374-374-374-374a55 55 0 0 1 0-77l33-33a55 55 0 0 1 77 0l374 374 374-374a54 54 0 0 1 39-16h0a54 54 0 0 1 38 16l33 33a55 55 0 0 1 0 77z" horiz-adv-x="1000" />

<glyph glyph-name="document" unicode="&#xe804;" d="M0-150v866l134 134h628v-1000z m59 59h644v882h-527v-117h-117z m100 99v37h167v-37z m0 75v37h297v-37z m0 74v37h427v-37z m153 137v134h-101l168 168 168-168h-100v-134z" horiz-adv-x="762" />

<glyph glyph-name="dollar" unicode="&#xe805;" d="M500 850a500 500 0 1 1 500-500 501 501 0 0 1-500 500z m-78-434l180-60a130 130 0 0 0 89-123 141 141 0 0 0-60-112 210 210 0 0 0-93-38v-80h-76v80a210 210 0 0 0-93 38 141 141 0 0 0-60 112h76c0-42 53-77 115-77s115 35 115 77a54 54 0 0 1-37 51l-180 60a130 130 0 0 0-89 123 141 141 0 0 0 60 112 210 210 0 0 0 93 38v80h76v-80a210 210 0 0 0 93-38 141 141 0 0 0 60-112h-76c0 42-53 77-115 77s-115-35-115-77a54 54 0 0 1 37-51z" horiz-adv-x="1000" />

<glyph glyph-name="error" unicode="&#xe806;" d="M1137-41l-503 856a69 69 0 0 1-121 0l-503-856a74 74 0 0 1-1-72 70 70 0 0 1 61-37h1006a70 70 0 0 1 62 37 74 74 0 0 1-1 72z m-563 595a48 48 0 0 0 53-46c0-91-10-221-10-311 0-24-25-34-43-34-24 0-44 10-44 34 0 90-10 220-10 311a48 48 0 0 0 54 46z m1-560a59 59 0 1 0 56 58 59 59 0 0 0-56-58z" horiz-adv-x="1147" />

<glyph glyph-name="exam" unicode="&#xe807;" d="M29-150a29 29 0 0 0-29 29v942a29 29 0 0 0 29 29h532a36 36 0 0 0 20-9l176-177a37 37 0 0 0 9-21v-764a29 29 0 0 0-30-29z m381 207a29 29 0 0 1 30-29h179a29 29 0 0 1 0 58h-179a29 29 0 0 1-30-29z m-284 79a29 29 0 0 1 0-41l58-59a29 29 0 0 1 42 0l117 118a29 29 0 1 1-41 41l-97-97-38 38a29 29 0 0 1-41 0z m284 155a29 29 0 0 1 30-29h179a29 29 0 0 1 0 59h-179a29 29 0 0 1-30-30z m-284 80a29 29 0 0 1 0-42l58-58a29 29 0 0 1 42 0l117 117a29 29 0 0 1-41 41l-97-96-38 38a29 29 0 0 1-41 0z m284 155a29 29 0 0 1 30-29h179a29 29 0 0 1 0 58h-179a29 29 0 0 1-30-29z m-284 79a29 29 0 0 1 0-41l58-59a29 29 0 0 1 42 0l117 117a29 29 0 1 1-41 42l-97-97-38 38a29 29 0 0 1-41 0z m464 67h76l-76 76z m296-745l-59 117a30 30 0 0 0-3 13v29h176v-29a29 29 0 0 0-3-13l-59-117a29 29 0 0 0-52 0z m-59 219v221h177v-221z m-3 292v146a88 88 0 1 0 176 0v-146z m59 146v-29h58v29a29 29 0 0 1-58 0z" horiz-adv-x="1003" />

<glyph glyph-name="family" unicode="&#xe808;" d="M732-150a88 88 0 0 1 5 29v148a205 205 0 0 1-52 136l-14 17a177 177 0 0 1-1 107 206 206 0 0 1 256 48 206 206 0 0 0 78-161v-295a29 29 0 0 0-30-29z m-702 0a29 29 0 0 0-30 29v295a206 206 0 0 0 78 161 206 206 0 0 1 256-48 176 176 0 0 1-1-107l-14-17a206 206 0 0 1-52-136v-148a88 88 0 0 1 5-29z m325 0a29 29 0 0 0-29 29v148a146 146 0 0 0 37 97 176 176 0 0 1 278 0 146 146 0 0 0 37-97v-148a29 29 0 0 0-29-29z m56 386c0 63 41 114 91 114s91-51 91-114-41-113-91-113-91 51-91 113z m182 228a159 159 0 1 0 159-160 159 159 0 0 0-159 160z m-500 0a159 159 0 1 0 159-160 159 159 0 0 0-159 160z m394 96a489 489 0 0 0-69 53c-48 45-73 88-73 129 0 94 93 138 157 86 64 52 157 8 157-86 0-41-25-84-73-129a493 493 0 0 0-69-53 29 29 0 0 0-30 0z" horiz-adv-x="1004" />

<glyph glyph-name="file" unicode="&#xe809;" d="M135-150a136 136 0 0 0-135 135v865h824v-716h-148a136 136 0 0 1-135-135v-149z m-20 466l27-20 83-62 119 179-56 38-80-120-53 39z m304-13h243v67h-243z m-304 257l27-21 83-62 119 180-56 37-80-120-53 40z m304-14h243v68h-243z m189-547a68 68 0 0 0 68 67h148l-216-216z" horiz-adv-x="824" />

<glyph glyph-name="help-circular-button-of-interface-with-question-mark" unicode="&#xe80a;" d="M1000 350a500 500 0 1 1-500-500 500 500 0 0 1 500 500z m-591 155a160 160 0 0 1-13-67h-60a163 163 0 0 0 41 116 145 145 0 0 0 112 44 146 146 0 0 0 105-38 126 126 0 0 0 39-96 102 102 0 0 0-14-57 459 459 0 0 0-59-64 186 186 0 0 1-41-53 164 164 0 0 1-10-63h-59a216 216 0 0 0 11 76 207 207 0 0 0 50 67l27 27a110 110 0 0 1 19 23 85 85 0 0 1 13 45 87 87 0 0 1-19 57 78 78 0 0 1-65 24 79 79 0 0 1-77-41z m40-333h66v-70h-66z" horiz-adv-x="1000" />

<glyph glyph-name="information" unicode="&#xe80b;" d="M500-150a500 500 0 1 0 500 500 501 501 0 0 0-500-500z m0 579a46 46 0 0 1-46-46v-276a46 46 0 1 1 92 0v276a46 46 0 0 1-46 46z m0 209a61 61 0 1 1 61-61 61 61 0 0 1-61 61z" horiz-adv-x="1000" />

<glyph glyph-name="license" unicode="&#xe80c;" d="M0-150v1000h1422v-1000z m280 650a169 169 0 0 1 9-56 178 178 0 0 1-110-165v-249h541v250a179 179 0 0 1-110 164 170 170 0 1 1-330 56z m574-382h400v84h-400z m0 190h400v84h-400z m0 190h252v84h-252z m-591-385v167a95 95 0 0 0 75 92 170 170 0 0 1 224 0 95 95 0 0 0 75-92v-167z m100 387a87 87 0 1 0 87-87 87 87 0 0 0-87 87z" horiz-adv-x="1422" />

<glyph glyph-name="logout" unicode="&#xe80d;" d="M500 850a500 500 0 0 0 498-455h-407v137a45 45 0 0 1-78 32l-181-182a45 45 0 0 1 0-64l181-182a45 45 0 0 1 78 32v137h407a500 500 0 1 0-498 545z m0 0" horiz-adv-x="998" />

<glyph glyph-name="magnifiying-glass" unicode="&#xe80e;" d="M989-84l-244 244a422 422 0 1 1-55-54l244-245a39 39 0 1 1 55 55z m-911 513a343 343 0 1 0 343-343 344 344 0 0 0-343 343z" horiz-adv-x="1000" />

<glyph glyph-name="mail" unicode="&#xe80f;" d="M91-150a91 91 0 0 0-91 91v668l709-301a45 45 0 0 1 18-3 43 43 0 0 1 18 3l709 301v-668a91 91 0 0 0-90-91z m-91 857v52a91 91 0 0 0 91 91h1273a91 91 0 0 0 91-91v-52l-728-308z" horiz-adv-x="1454" />

<glyph glyph-name="menu" unicode="&#xe810;" d="M786-43a107 107 0 1 0 107-107 107 107 0 0 0-107 107z m-393 0a107 107 0 1 0 107-107 107 107 0 0 0-107 107z m-393 0a107 107 0 1 0 107-107 107 107 0 0 0-107 107z m786 393a107 107 0 1 0 107-107 107 107 0 0 0-107 107z m-393 0a107 107 0 1 0 107-107 107 107 0 0 0-107 107z m-393 0a107 107 0 1 0 107-107 107 107 0 0 0-107 107z m786 393a107 107 0 1 0 107-107 107 107 0 0 0-107 107z m-393 0a107 107 0 1 0 107-107 107 107 0 0 0-107 107z m-393 0a107 107 0 1 0 107-107 107 107 0 0 0-107 107z" horiz-adv-x="1000" />

<glyph glyph-name="notifications-button" unicode="&#xe811;" d="M425-150a100 100 0 0 1 100 100h-200a100 100 0 0 1 100-100z m325 300v275a322 322 0 0 1-250 315v35a75 75 0 0 1-150 0v-35a322 322 0 0 1-250-315v-275l-100-100v-50h850v50z" horiz-adv-x="850" />

<glyph glyph-name="pencil-edit" unicode="&#xe817;" d="M625 683l204-204-517-518-204 205z m359 49l-91 92a91 91 0 0 1-127 0l-88-88 205-204 101 102a70 70 0 0 1 0 98z m-983-854a23 23 0 0 1 28-27l228 55-205 204z" horiz-adv-x="1005" />

<glyph glyph-name="phone-call" unicode="&#xe818;" d="M921 192a572 572 0 0 0-179 28 77 77 0 0 1-78-16l-114-86a634 634 0 0 0-282 282l83 111a80 80 0 0 1 20 80 572 572 0 0 0-29 180 79 79 0 0 1-79 79h-184a79 79 0 0 1-79-79 922 922 0 0 1 921-921 79 79 0 0 1 79 79v184a79 79 0 0 1-79 79z" horiz-adv-x="1000" />

<glyph glyph-name="pin" unicode="&#xe819;" d="M362 850a363 363 0 0 1-362-362c0-248 324-612 338-627a33 33 0 0 1 48 0c14 15 338 379 338 627a363 363 0 0 1-362 362z m0-544a182 182 0 1 0 182 182 182 182 0 0 0-182-182z" horiz-adv-x="724" />

<glyph glyph-name="question" unicode="&#xe81a;" d="M952-143l-180 150h-350a171 171 0 0 0-171 170v22h328a229 229 0 0 1 229 229v171h21a170 170 0 0 0 171-171v-549a29 29 0 0 0-48-22z m-952 273v550a170 170 0 0 0 171 170h408a170 170 0 0 0 170-170v-251a171 171 0 0 0-170-171h-351l-180-150a29 29 0 0 0-48 22z m345 283a29 29 0 1 1 30 29 29 29 0 0 1-30-29z m79 204a49 49 0 0 0-49-49 29 29 0 0 1-30-30v-31a29 29 0 1 1 59 0v6a108 108 0 1 1-137 104h0a29 29 0 1 1 58 0 49 49 0 0 0 99 0z" horiz-adv-x="1000" />

<glyph glyph-name="rating" unicode="&#xe81b;" d="M577 81a231 231 0 1 0 231-231 231 231 0 0 0-231 231z m-538-231a39 39 0 0 0-39 38v385a39 39 0 0 0 39 39h384a39 39 0 0 0 39-39v-384a39 39 0 0 0-39-39z m38 77h308v308h-308z m500 692a231 231 0 1 0 231-230 231 231 0 0 0-231 230z m-538-230a39 39 0 0 0-39 38v385a39 39 0 0 0 39 38h288a38 38 0 0 0 0-77h-250v-308h308v77a39 39 0 0 0 77 0v-115a39 39 0 0 0-39-38z m230 115a39 39 0 0 0-27 11l-77 77a38 38 0 0 0 55 55l47-48 165 199a39 39 0 1 0 59-49l-192-231a38 38 0 0 0-28-14z" horiz-adv-x="1039" />

<glyph glyph-name="student" unicode="&#xe81e;" d="M993-116v593l-394-172a34 34 0 0 0-27 0l-551 240a34 34 0 0 0 0 63l558 239a34 34 0 0 0 27 0l544-239a34 34 0 0 0 0-63l-88-38v-623a34 34 0 0 0-69 0z m-675 74a34 34 0 0 0-34 35v75h608v-75a34 34 0 0 0-34-35z m-34 178v222l261-113a100 100 0 0 1 80 0l267 116v-225z" horiz-adv-x="1171" />

<glyph glyph-name="tick" unicode="&#xe81f;" d="M854 704a500 500 0 1 1 0-708 501 501 0 0 1 0 708z m-74-217l-292-291a42 42 0 0 0-59 0l-167 166a42 42 0 1 0 59 59l137-137 263 262a42 42 0 1 0 59-59z" horiz-adv-x="1000" />

<glyph glyph-name="transfer" unicode="&#xe820;" d="M1259 519l-318 318a46 46 0 0 1-77-32v-137h-319a46 46 0 1 1 0-91h364a46 46 0 0 1 46 46v72l208-209-208-208v72a46 46 0 0 1-46 45h-500v137a46 46 0 0 1-77 32l-319-318a46 46 0 0 1 0-65l319-318a46 46 0 0 1 32-13 45 45 0 0 1 17 3 46 46 0 0 1 28 42v137h318a46 46 0 0 1 0 91h-363a46 46 0 0 1-46-46v-72l-208 209 208 208v-72a46 46 0 0 1 46-45h500v-137a46 46 0 0 1 77-32l318 318a46 46 0 0 1 0 65z" horiz-adv-x="1273" />

<glyph glyph-name="video" unicode="&#xe821;" d="M0 700a1285 1285 0 0 0 141 29v-794l101-5a638 638 0 0 0 206-43 1148 1148 0 0 1-404-26l-44-11z m246-700l-34 2v848l37-2a763 763 0 0 0 389-140v-848h0a691 691 0 0 1-392 140z m689-107a1257 1257 0 0 1-226-18v848a1178 1178 0 0 0 226 19 1230 1230 0 0 0 271-34v-847a1245 1245 0 0 1-271 32z m-120 219l311 207-311 207z m71 283l113-76-113-75z" horiz-adv-x="1206" />
</font>
</defs>
</svg>
