<svg id="Group_497" data-name="Group 497" xmlns="http://www.w3.org/2000/svg" width="34" height="28.905" viewBox="0 0 34 28.905">
  <defs>
    <style>
      .cls-1 {
        fill: #fff;
      }
    </style>
  </defs>
  <path id="Path_429" data-name="Path 429" class="cls-1" d="M33.7,64.111,18.784,39.373a2.083,2.083,0,0,0-3.568,0L.3,64.111A2.083,2.083,0,0,0,2.083,67.27H31.917A2.083,2.083,0,0,0,33.7,64.111ZM17.011,46.922a1.412,1.412,0,0,1,1.582,1.34c0,2.614-.308,6.37-.308,8.984,0,.681-.747.966-1.274.966-.7,0-1.3-.286-1.3-.966,0-2.614-.307-6.37-.307-8.984C15.408,47.406,16.111,46.922,17.011,46.922Zm.022,16.189A1.692,1.692,0,1,1,18.7,61.42,1.717,1.717,0,0,1,17.033,63.112Z" transform="translate(0 -38.365)"/>
</svg>
