<svg xmlns="http://www.w3.org/2000/svg" width="54.984" height="45.82" viewBox="0 0 54.984 45.82">
    <defs>
        <style>
            .prefix__cls-1{fill:#697895}
        </style>
    </defs>
    <g id="prefix__computer" transform="translate(0 -4)">
        <path id="prefix__Path_1778" d="M11.915 21.532a1.806 1.806 0 0 1-1.372-.63l-3.61-4.211a1.806 1.806 0 0 1 0-2.351l3.61-4.211a1.806 1.806 0 0 1 2.741 2.353l-2.6 3.034 2.6 3.037a1.8 1.8 0 0 1-1.372 2.979z" class="prefix__cls-1" data-name="Path 1778" transform="translate(7.464 6.662)"/>
        <path id="prefix__Path_1781" d="M8.306 21.531a1.806 1.806 0 0 0 1.372-.63l3.61-4.211a1.806 1.806 0 0 0 0-2.351l-3.61-4.211a1.806 1.806 0 0 0-2.741 2.353l2.6 3.034-2.6 3.037a1.8 1.8 0 0 0 1.372 2.979z" class="prefix__cls-1" data-name="Path 1781" transform="translate(26.464 6.662)"/>
        <path id="prefix__Path_1779" d="M12.059 29.382a2.012 2.012 0 0 1-1.508-2.409L14.57 9.559a2.01 2.01 0 0 1 3.917.9l-4.019 17.415a2.009 2.009 0 0 1-2.409 1.508z" class="prefix__cls-1" data-name="Path 1779" transform="translate(11.973 3.875)"/>
        <path id="prefix__Path_1780" d="M50.974 4H4.009A4.028 4.028 0 0 0 0 8.009v28.638a4.028 4.028 0 0 0 4.009 4.009h18.9v4.582h-4.581a2.291 2.291 0 1 0 0 4.582h18.328a2.291 2.291 0 1 0 0-4.582h-4.582v-4.582h18.9a4.028 4.028 0 0 0 4.009-4.009V8.009A4.028 4.028 0 0 0 50.974 4zM50.4 36.074H4.582V8.582H50.4z" data-name="Path 1780" style="fill:#a6b5d1"/>
    </g>
</svg>
