<svg xmlns="http://www.w3.org/2000/svg" width="48.379" height="48.379" viewBox="0 0 48.379 48.379">
  <defs>
    <style>
      .cls-1 {
        fill: #697895;
      }

      .cls-2 {
        fill: #a6b5d1;
      }
    </style>
  </defs>
  <g id="connection" transform="translate(0 0.001)">
    <path id="Path_1647" data-name="Path 1647" class="cls-1" d="M193.476,182.61a7.015,7.015,0,1,0,0,9.919A7.017,7.017,0,0,0,193.476,182.61Zm0,0" transform="translate(-164.349 -163.496)"/>
    <path id="Path_1648" data-name="Path 1648" class="cls-1" d="M5.424,11.008a5.4,5.4,0,0,0,2.634-.682,1.49,1.49,0,0,0,.137.159l7.853,7.851a10.141,10.141,0,0,1,2.115-2.144L10.323,8.355a1.475,1.475,0,0,0-.158-.136,5.424,5.424,0,1,0-4.741,2.789Zm0,0" transform="translate(0 -0.149)"/>
    <path id="Path_1649" data-name="Path 1649" class="cls-1" d="M330.886,325.656a5.4,5.4,0,0,0-2.635.682,1.528,1.528,0,0,0-.136-.159l-7.9-7.894a10.155,10.155,0,0,1-2.144,2.114l7.912,7.909a1.47,1.47,0,0,0,.158.136,5.424,5.424,0,1,0,4.741-2.789Zm0,0" transform="translate(-288.019 -288.211)"/>
    <path id="Path_1650" data-name="Path 1650" class="cls-2" d="M220.817,6.658a1.5,1.5,0,0,0-.057.405v7.108a10.161,10.161,0,0,1,3.011-.02V7.063a1.524,1.524,0,0,0-.038-.333,3.511,3.511,0,1,0-2.916-.072Zm0,0" transform="translate(-198.168)"/>
    <path id="Path_1651" data-name="Path 1651" class="cls-2" d="M223.851,367.19a1.506,1.506,0,0,0,.056-.4v-7.213a10.161,10.161,0,0,1-3.011.02v7.192a1.505,1.505,0,0,0,.046.365,3.5,3.5,0,1,0,2.909.038Zm0,0" transform="translate(-198.168 -325.599)"/>
    <path id="Path_1652" data-name="Path 1652" class="cls-1" d="M318.41,16.113a10.209,10.209,0,0,1,2.136,2.122l7.83-7.828a1.477,1.477,0,0,0,.12-.136,5.414,5.414,0,1,0-2.082-2.135,1.485,1.485,0,0,0-.166.141Zm0,0" transform="translate(-288.324 -0.132)"/>
    <path id="Path_1653" data-name="Path 1653" class="cls-1" d="M18.3,320.689a10.146,10.146,0,0,1-2.151-2.107l-7.958,7.956a1.494,1.494,0,0,0-.137.159,5.422,5.422,0,1,0,2.107,2.106,1.479,1.479,0,0,0,.159-.136Zm0,0" transform="translate(0 -288.48)"/>
    <path id="Path_1654" data-name="Path 1654" class="cls-2" d="M367.827,223.285a1.491,1.491,0,0,0,.324-.036,3.506,3.506,0,1,0-.044-2.948,1.517,1.517,0,0,0-.28-.027h-7.291a10.157,10.157,0,0,1-.031,3.011Zm0,0" transform="translate(-326.44 -197.602)"/>
    <path id="Path_1655" data-name="Path 1655" class="cls-2" d="M6.987,220.274a1.5,1.5,0,0,0-.275.026,3.506,3.506,0,1,0-.045,2.95,1.518,1.518,0,0,0,.319.035h7.281a10.157,10.157,0,0,1-.031-3.011Zm0,0" transform="translate(0 -197.602)"/>
  </g>
</svg>
