<svg xmlns="http://www.w3.org/2000/svg" width="54.128" height="53.995" viewBox="0 0 54.128 53.995">
  <defs>
    <style>
      .cls-1 {
        fill: #a6b5d1;
      }

      .cls-2 {
        fill: #8695b1;
      }
    </style>
  </defs>
  <g id="Group_2042" data-name="Group 2042" transform="translate(3550.37 21205.768)">
    <g id="Group_681" data-name="Group 681" transform="translate(-3546.502 -21178.986)">
      <g id="user" transform="translate(0)">
        <ellipse id="Ellipse_27" data-name="Ellipse 27" class="cls-1" cx="6.765" cy="6.765" rx="6.765" ry="6.765" transform="translate(5.496 0)"/>
        <path id="Path_520" data-name="Path 520" class="cls-1" d="M32.886,150a12.261,12.261,0,0,0-12.261,12.261H45.147A12.261,12.261,0,0,0,32.886,150Z" transform="translate(-20.625 -135.047)"/>
      </g>
    </g>
    <g id="Group_682" data-name="Group 682" transform="translate(-3524.735 -21178.986)">
      <g id="user-2" data-name="user">
        <ellipse id="Ellipse_27-2" data-name="Ellipse 27" class="cls-2" cx="6.765" cy="6.765" rx="6.765" ry="6.765" transform="translate(5.496 0)"/>
        <path id="Path_520-2" data-name="Path 520" class="cls-2" d="M32.886,150a12.261,12.261,0,0,0-12.261,12.261H45.147A12.261,12.261,0,0,0,32.886,150Z" transform="translate(-20.625 -135.047)"/>
      </g>
    </g>
    <g id="Group_686" data-name="Group 686" transform="translate(-3477.768 -14838.768)">
      <path id="Path_552" data-name="Path 552" class="cls-2" d="M-251.939-6408.771l-2.441,5.033-6.288.843,4.747,4.258-1.173,5.679,5.156-2.682,4.965,3.211-.681-6.208,4.553-4.258-6.69-.843Z" transform="translate(207.402 44.948)"/>
      <g id="Group_612" data-name="Group 612" transform="translate(-55.473 -6367)">
        <path id="Path_545" data-name="Path 545" class="cls-2" d="M27.914,21.87a1.256,1.256,0,0,1-.71-.219l-5.269-3.587-5.269,3.587A1.262,1.262,0,0,1,14.734,20.3l1.64-6.475L11.441,9.609a1.262,1.262,0,0,1,.749-2.221l6.282-.355L20.749.826a1.263,1.263,0,0,1,2.37,0L25.4,7.035l6.282.355a1.262,1.262,0,0,1,.749,2.221L27.5,13.823l1.64,6.475a1.26,1.26,0,0,1-1.221,1.571Zm-5.979-6.593a1.256,1.256,0,0,1,.71.219l3.228,2.2-1.016-4.011a1.263,1.263,0,0,1,.4-1.27L28.4,9.734l-3.97-.225a1.263,1.263,0,0,1-1.114-.826L21.935,4.926,20.558,8.682a1.262,1.262,0,0,1-1.114.826l-3.97.225,3.137,2.68a1.26,1.26,0,0,1,.4,1.27L18,17.694l3.228-2.2A1.256,1.256,0,0,1,21.935,15.277Z" transform="translate(-10.999 0)"/>
      </g>
    </g>
    <g id="Group_693" data-name="Group 693" transform="translate(-3494.896 -14830.896)">
      <path id="Path_552-2" data-name="Path 552" class="cls-2" d="M-255.03-6408.771l-1.577,3.251-4.062.545,3.066,2.75-.758,3.669,3.331-1.732,3.207,2.074-.44-4.011,2.941-2.75-4.321-.545Z" transform="translate(206.62 43.823)"/>
      <g id="Group_612-2" data-name="Group 612" transform="translate(-55.473 -6367)">
        <path id="Path_545-2" data-name="Path 545" class="cls-2" d="M21.926,14.127a.811.811,0,0,1-.459-.141l-3.4-2.317-3.4,2.317a.815.815,0,0,1-1.249-.875l1.06-4.183L11.285,6.207a.816.816,0,0,1,.484-1.434l4.058-.229L17.3.534a.816.816,0,0,1,1.531,0L20.3,4.545l4.058.229a.816.816,0,0,1,.484,1.434L21.655,8.929l1.06,4.183a.814.814,0,0,1-.789,1.015ZM18.064,9.868a.811.811,0,0,1,.459.141l2.085,1.42-.656-2.591a.816.816,0,0,1,.26-.82l2.027-1.731-2.565-.146a.816.816,0,0,1-.719-.534l-.89-2.427-.89,2.427a.815.815,0,0,1-.719.534l-2.565.146,2.027,1.731a.814.814,0,0,1,.26.82L15.52,11.43l2.085-1.42A.811.811,0,0,1,18.064,9.868Z" transform="translate(-10.999 0)"/>
      </g>
    </g>
    <g id="Group_687" data-name="Group 687" transform="translate(-3454.896 -14830.896)">
      <path id="Path_552-3" data-name="Path 552" class="cls-2" d="M-255.03-6408.771l-1.577,3.251-4.062.545,3.066,2.75-.758,3.669,3.331-1.732,3.207,2.074-.44-4.011,2.941-2.75-4.321-.545Z" transform="translate(206.62 43.823)"/>
      <g id="Group_612-3" data-name="Group 612" transform="translate(-55.473 -6367)">
        <path id="Path_545-3" data-name="Path 545" class="cls-2" d="M21.926,14.127a.811.811,0,0,1-.459-.141l-3.4-2.317-3.4,2.317a.815.815,0,0,1-1.249-.875l1.06-4.183L11.285,6.207a.816.816,0,0,1,.484-1.434l4.058-.229L17.3.534a.816.816,0,0,1,1.531,0L20.3,4.545l4.058.229a.816.816,0,0,1,.484,1.434L21.655,8.929l1.06,4.183a.814.814,0,0,1-.789,1.015ZM18.064,9.868a.811.811,0,0,1,.459.141l2.085,1.42-.656-2.591a.816.816,0,0,1,.26-.82l2.027-1.731-2.565-.146a.816.816,0,0,1-.719-.534l-.89-2.427-.89,2.427a.815.815,0,0,1-.719.534l-2.565.146,2.027,1.731a.814.814,0,0,1,.26.82L15.52,11.43l2.085-1.42A.811.811,0,0,1,18.064,9.868Z" transform="translate(-10.999 0)"/>
      </g>
    </g>
  </g>
</svg>
