<svg xmlns="http://www.w3.org/2000/svg" width="52.218" height="52.218" viewBox="0 0 52.218 52.218">
  <defs>
    <style>
      .cls-1 {
        fill: #a6b5d1;
      }

      .cls-2 {
        fill: #697895;
      }
    </style>
  </defs>
  <g id="Group_2044" data-name="Group 2044" transform="translate(3169.991 21054.992)">
    <g id="process" transform="translate(-3169.991 -21054.992)">
      <path id="Path_525" data-name="Path 525" class="cls-1" d="M84.021,150.237a22.837,22.837,0,0,1,2.214,9.63,23.147,23.147,0,0,1-23.049,23.049,22.769,22.769,0,0,1-13.012-4.228,4.558,4.558,0,0,0-1.05-4.758,4.7,4.7,0,0,0-6.49,0,4.587,4.587,0,0,0,0,6.49,4.525,4.525,0,0,0,5.52.646,25.825,25.825,0,0,0,15.034,4.911A26.211,26.211,0,0,0,89.3,159.867a25.888,25.888,0,0,0-2.5-10.918Z" transform="translate(-37.078 -133.758)"/>
      <path id="Path_526" data-name="Path 526" class="cls-1" d="M40.172,12.046a4.589,4.589,0,0,0,6.491-6.49,4.659,4.659,0,0,0-5.51-.638A25.823,25.823,0,0,0,26.109,0,26.211,26.211,0,0,0,0,26.109,25.888,25.888,0,0,0,2.5,37.027l2.776-1.288a22.836,22.836,0,0,1-2.214-9.63A23.147,23.147,0,0,1,26.109,3.06,22.768,22.768,0,0,1,39.121,7.288a4.559,4.559,0,0,0,1.05,4.758Z" transform="translate(0 0)"/>
    </g>
    <path id="clock_3_" data-name="clock (3)" class="cls-2" d="M13.384,0A13.384,13.384,0,1,0,26.769,13.384,13.4,13.4,0,0,0,13.384,0ZM19.75,20.307a1.114,1.114,0,0,1-1.577,0L12.6,14.731a1.11,1.11,0,0,1-.327-.789V6.692a1.115,1.115,0,0,1,2.231,0V13.48l5.25,5.25A1.114,1.114,0,0,1,19.75,20.307Zm0,0" transform="translate(-3157.384 -21041.385)"/>
  </g>
</svg>
