<svg xmlns="http://www.w3.org/2000/svg" width="50.857" height="39.96" viewBox="0 0 50.857 39.96">
  <defs>
    <style>
      .cls-1 {
        fill: #8695b1;
      }
    </style>
  </defs>
  <g id="transfer" transform="translate(0 -51.198)">
    <g id="Group_595" data-name="Group 595" transform="translate(0 51.198)">
      <path id="Path_528" data-name="Path 528" class="cls-1" d="M50.325,64.445,37.611,51.73a1.816,1.816,0,0,0-3.1,1.284v5.449H21.8a1.816,1.816,0,1,0,0,3.633H36.327a1.816,1.816,0,0,0,1.816-1.816V57.4l8.33,8.33-8.33,8.33V71.178a1.816,1.816,0,0,0-1.816-1.816H16.347V63.912a1.816,1.816,0,0,0-3.1-1.284L.532,75.343a1.816,1.816,0,0,0,0,2.568L13.246,90.626a1.816,1.816,0,0,0,1.284.532,1.793,1.793,0,0,0,.7-.138,1.816,1.816,0,0,0,1.121-1.678V83.892H29.061a1.816,1.816,0,1,0,0-3.633H14.53a1.816,1.816,0,0,0-1.816,1.816v2.881l-8.33-8.33,8.33-8.33v2.881a1.816,1.816,0,0,0,1.816,1.816H34.51v5.449a1.816,1.816,0,0,0,3.1,1.284L50.325,67.013A1.816,1.816,0,0,0,50.325,64.445Z" transform="translate(0 -51.198)"/>
    </g>
  </g>
</svg>
