<svg xmlns="http://www.w3.org/2000/svg" width="49.277" height="49.277" viewBox="0 0 49.277 49.277">
  <defs>
    <style>
      .cls-1 {
        fill: #fff;
      }

      .cls-2 {
        fill: #697895;
      }

      .cls-3 {
        fill: none;
        stroke: #a6b5d1;
        stroke-width: 3px;
      }
    </style>
  </defs>
  <g id="Group_863" data-name="Group 863" transform="translate(2144.5 11116.5)">
    <path id="Path_619" data-name="Path 619" class="cls-1" d="M-67.933-6621.64l-2.475-6.342,4.752-4.745,6.018,2.75,2.579-.8,2.235-6.412H-48.4l2.642,7.214h1.544l6.339-2.75,4.563,4.745-2.914,6.795,1.192,1.9,6.224,2.172v6.019l-1.32,1.4-4.9,1.5-1.192,2.12,2.914,5.507-1.722,3.213-2.841,2.122-6.339-2.122-1.544.554-2.642,5.849H-55.24l-2.592-6.4-1.806-.5-4.677,2.626h-2.541l-3.552-4.729,2.475-6.7-.619-2.067-6.383-1.967v-6.423l3.273-2.172,3.729-.779Z" transform="translate(-2068 -4478)"/>
    <g id="Group_691" data-name="Group 691" transform="translate(-2128.87 -11100.869)">
      <g id="Group_558" data-name="Group 558">
        <path id="Path_518" data-name="Path 518" class="cls-2" d="M220.008,211a9.008,9.008,0,1,0,9.008,9.008A9.018,9.018,0,0,0,220.008,211Z" transform="translate(-211 -211)"/>
      </g>
    </g>
    <g id="Group_692" data-name="Group 692" transform="translate(-2143 -11115)">
      <g id="Group_560" data-name="Group 560">
        <path id="Path_519" data-name="Path 519" class="cls-3" d="M45.351,19.141l-5.578-1.83a17.167,17.167,0,0,0-.753-1.813l2.588-5.176a1.355,1.355,0,0,0-.254-1.565L37.519,4.924a1.355,1.355,0,0,0-1.565-.254L30.778,7.258a17.16,17.16,0,0,0-1.813-.753L27.136.927A1.354,1.354,0,0,0,25.85,0H20.427a1.354,1.354,0,0,0-1.286.927l-1.83,5.578a17.168,17.168,0,0,0-1.813.753L10.324,4.67a1.351,1.351,0,0,0-1.565.254L4.924,8.759a1.356,1.356,0,0,0-.254,1.565L7.258,15.5a17.161,17.161,0,0,0-.753,1.813L.927,19.141A1.354,1.354,0,0,0,0,20.427V25.85a1.354,1.354,0,0,0,.927,1.286l5.578,1.83a17.168,17.168,0,0,0,.753,1.813L4.67,35.954a1.355,1.355,0,0,0,.254,1.565l3.834,3.834a1.353,1.353,0,0,0,1.565.254L15.5,39.019a17.16,17.16,0,0,0,1.813.753l1.83,5.578a1.354,1.354,0,0,0,1.286.927H25.85a1.354,1.354,0,0,0,1.286-.927l1.83-5.578a17.167,17.167,0,0,0,1.813-.753l5.176,2.588a1.36,1.36,0,0,0,1.565-.254l3.834-3.834a1.356,1.356,0,0,0,.254-1.565l-2.588-5.176a17.159,17.159,0,0,0,.753-1.813l5.578-1.83a1.354,1.354,0,0,0,.927-1.286V20.427A1.354,1.354,0,0,0,45.351,19.141Z"/>
      </g>
    </g>
  </g>
</svg>
