<svg xmlns="http://www.w3.org/2000/svg" width="53.505" height="57.003" viewBox="0 0 53.505 57.003">
  <defs>
    <style>
      .cls-1, .cls-4 {
        fill: #fff;
      }

      .cls-1 {
        stroke: #a6b5d1;
      }

      .cls-1, .cls-3 {
        stroke-width: 3px;
      }

      .cls-2, .cls-3 {
        fill: #697895;
      }

      .cls-3 {
        stroke: #fff;
      }

      .cls-5, .cls-7 {
        stroke: none;
      }

      .cls-6 {
        fill: none;
      }

      .cls-7 {
        fill: #a6b5d1;
      }
    </style>
  </defs>
  <g id="Group_2043" data-name="Group 2043" transform="translate(3164 21211)">
    <g id="Rectangle_287" data-name="Rectangle 287" class="cls-1" transform="translate(-3164 -21195)">
      <rect class="cls-5" width="39" height="41" rx="4"/>
      <rect class="cls-6" x="1.5" y="1.5" width="36" height="38" rx="2.5"/>
    </g>
    <g id="Rectangle_288" data-name="Rectangle 288" class="cls-1" transform="translate(-3155 -21211)">
      <rect class="cls-5" width="31" height="38" rx="4"/>
      <rect class="cls-6" x="1.5" y="1.5" width="28" height="35" rx="2.5"/>
    </g>
    <rect id="Rectangle_289" data-name="Rectangle 289" class="cls-2" width="29" height="37" rx="4" transform="translate(-3148 -21204)"/>
    <g id="Rectangle_290" data-name="Rectangle 290" class="cls-3" transform="translate(-3141 -21197)">
      <rect class="cls-5" width="30" height="29" rx="4"/>
      <rect class="cls-6" x="1.5" y="1.5" width="27" height="26" rx="2.5"/>
    </g>
    <g id="Path_612" data-name="Path 612" class="cls-4" transform="translate(-3164 -21183)">
      <path class="cls-5" d="M 41.99673843383789 27.50325775146484 C 41.98234939575195 27.50325775146484 41.96799850463867 27.50288772583008 41.95353698730469 27.50211715698242 L 41.91372680664062 27.49999809265137 L 41.87386703491211 27.49999809265137 L 3.502870082855225 27.49999809265137 C 2.643007278442383 27.48390960693359 2.006704330444336 27.32520484924316 1.755948543548584 27.06406784057617 C 1.699520468711853 27.00531387329102 1.540353059768677 26.83957290649414 1.506415367126465 26.23953628540039 L 9.556148529052734 3.500567436218262 L 9.567468643188477 3.468587398529053 L 9.577338218688965 3.436127424240112 C 9.811898231506348 2.664227247238159 10.07953834533691 2.15063738822937 10.39553833007812 1.866007328033447 C 10.5847282409668 1.695597290992737 10.89619827270508 1.49999737739563 11.63162803649902 1.49999737739563 L 50.01601028442383 1.49999737739563 C 51.00306701660156 1.49999737739563 51.84993743896484 2.075498342514038 51.9863395690918 2.796448469161987 L 43.94934844970703 25.49942779541016 L 43.94493865966797 25.51187705993652 L 43.94075775146484 25.5243968963623 C 43.57596969604492 26.61554718017578 42.70388793945312 27.50325775146484 41.99673843383789 27.50325775146484 Z"/>
      <path class="cls-7" d="M 11.63162994384766 2.999998092651367 C 11.50283432006836 2.999998092651367 11.41951370239258 3.009733200073242 11.37184524536133 3.018045425415039 C 11.31180953979492 3.104656219482422 11.17366409301758 3.342004776000977 11.01253890991211 3.872247695922852 L 10.9928092956543 3.937168121337891 L 10.97015762329102 4.001136779785156 L 3.188270568847656 25.98349380493164 C 3.282909393310547 25.99141502380371 3.392223358154297 25.99739837646484 3.517532348632812 25.99999809265137 L 41.87387084960938 25.99999809265137 L 41.87560653686523 25.99999809265137 C 42.04323577880859 25.88686752319336 42.35306549072266 25.54255294799805 42.51813888549805 25.04878616333008 L 42.52650833129883 25.02374649047852 L 42.53532791137695 24.99885749816895 L 50.30825805664062 3.041837692260742 C 50.22964477539062 3.017559051513672 50.13221740722656 2.999998092651367 50.01600646972656 2.999998092651367 L 11.63162994384766 2.999998092651367 M 11.63162994384766 -1.9073486328125e-06 L 50.01600646972656 -1.9073486328125e-06 C 51.94319915771484 -1.9073486328125e-06 53.50549697875977 1.343147277832031 53.50549697875977 2.999998092651367 L 45.36334991455078 25.99999809265137 C 44.83013153076172 27.59493637084961 43.47354888916016 29.00325775146484 41.99674224853516 29.00325775146484 C 41.95579528808594 29.00325775146484 41.91498565673828 29.00218391418457 41.87387084960938 28.99999809265137 L 3.489486694335938 28.99999809265137 C 0.6341896057128906 28.95116806030273 0 27.65685653686523 0 25.99999809265137 L 8.142139434814453 2.999998092651367 C 8.748706817626953 1.003908157348633 9.704437255859375 -1.9073486328125e-06 11.63162994384766 -1.9073486328125e-06 Z"/>
    </g>
  </g>
</svg>
