<svg xmlns="http://www.w3.org/2000/svg" xmlns:xlink="http://www.w3.org/1999/xlink" width="53" height="54.711" viewBox="0 0 53 54.711">
  <defs>
    <style>
      .cls-1 {
        fill: #fff;
      }

      .cls-2 {
        fill: #8695b1;
      }

      .cls-3 {
        clip-path: url(#clip-path);
      }

      .cls-4 {
        fill: #697895;
      }
    </style>
    <clipPath id="clip-path">
      <rect id="Rectangle_295" data-name="Rectangle 295" class="cls-1" width="53" height="27" transform="translate(-79 -5967)"/>
    </clipPath>
  </defs>
  <g id="Group_2045" data-name="Group 2045" transform="translate(3549 20918.711)">
    <g id="settings_1_" data-name="settings (1)" transform="translate(-3547.712 -20918.711)">
      <g id="Group_667" data-name="Group 667">
        <path id="Path_581" data-name="Path 581" class="cls-2" d="M45.684,13.241a7.533,7.533,0,1,0-9.8.013,10.536,10.536,0,0,0-2.114,1.461,13.556,13.556,0,0,0-2.945-1.66,7.533,7.533,0,1,0-10.231,0,13.558,13.558,0,0,0-2.945,1.66,10.532,10.532,0,0,0-2.114-1.461,7.533,7.533,0,1,0-9.8-.013A10.545,10.545,0,0,0,0,22.6v6.026a1.507,1.507,0,0,0,1.038,1.432l6.194,2.026a21.757,21.757,0,0,0,.827,2.027L5.2,39.855a1.507,1.507,0,0,0,.284,1.737L9.732,45.84a1.507,1.507,0,0,0,1.737.284l5.746-2.859a21.74,21.74,0,0,0,2.024.826l2.027,6.289A1.507,1.507,0,0,0,22.7,51.424h6.026a1.506,1.506,0,0,0,1.434-1.044l2.027-6.289a21.741,21.741,0,0,0,2.024-.826l5.746,2.859a1.507,1.507,0,0,0,1.737-.284l4.248-4.248a1.507,1.507,0,0,0,.284-1.737l-2.859-5.746a21.737,21.737,0,0,0,.827-2.027l6.194-2.026a1.506,1.506,0,0,0,1.038-1.432V22.6A10.545,10.545,0,0,0,45.684,13.241ZM40.777,3.013a4.52,4.52,0,1,1-4.52,4.52A4.525,4.525,0,0,1,40.777,3.013Zm-15.066,0a4.52,4.52,0,1,1-4.52,4.52A4.525,4.525,0,0,1,25.712,3.013Zm0,12.052A10.562,10.562,0,0,1,36.151,24.1H15.273A10.562,10.562,0,0,1,25.712,15.066Zm0,18.079a7.554,7.554,0,0,0,7.381-6.036H36.15a10.545,10.545,0,0,1-20.876.01h3.057A7.546,7.546,0,0,0,25.712,33.144Zm-4.261-6.036h8.521a4.514,4.514,0,0,1-8.521,0ZM10.646,3.013a4.52,4.52,0,1,1-4.52,4.52A4.525,4.525,0,0,1,10.646,3.013ZM3.013,22.6A7.6,7.6,0,0,1,15.43,16.782,13.505,13.505,0,0,0,12.237,24.1H3.013Zm45.4,4.934-5.872,1.92a1.506,1.506,0,0,0-.965.967A18.648,18.648,0,0,1,40.35,33.4a1.507,1.507,0,0,0-.017,1.376l2.711,5.448-2.716,2.716L34.88,40.232a1.507,1.507,0,0,0-1.376.017,18.647,18.647,0,0,1-2.984,1.224,1.506,1.506,0,0,0-.969.971l-1.923,5.966H23.8l-1.923-5.966a1.507,1.507,0,0,0-.969-.971,18.641,18.641,0,0,1-2.984-1.224,1.507,1.507,0,0,0-1.376-.017L11.1,42.943,8.38,40.227l2.711-5.448a1.507,1.507,0,0,0-.017-1.376A18.65,18.65,0,0,1,9.85,30.42a1.506,1.506,0,0,0-.965-.967l-5.872-1.92v-.414h9.223a13.56,13.56,0,0,0,26.952,0h9.223Zm0-3.427H39.187a13.5,13.5,0,0,0-3.193-7.323A7.6,7.6,0,0,1,48.411,22.6Z"/>
      </g>
    </g>
    <rect id="Rectangle_294" data-name="Rectangle 294" class="cls-1" width="53" height="28" transform="translate(-3549 -20895)"/>
    <g id="Mask_Group_3" data-name="Mask Group 3" class="cls-3" transform="translate(-3470 -14924)">
      <g id="settings_1_2" data-name="settings (1)" transform="translate(-77.712 -5994.712)">
        <g id="Group_689" data-name="Group 689">
          <path id="Path_620" data-name="Path 620" class="cls-4" d="M45.684,13.241a7.533,7.533,0,1,0-9.8.013,10.536,10.536,0,0,0-2.114,1.461,13.556,13.556,0,0,0-2.945-1.66,7.533,7.533,0,1,0-10.231,0,13.558,13.558,0,0,0-2.945,1.66,10.532,10.532,0,0,0-2.114-1.461,7.533,7.533,0,1,0-9.8-.013A10.545,10.545,0,0,0,0,22.6v6.026a1.507,1.507,0,0,0,1.038,1.432l6.194,2.026a21.757,21.757,0,0,0,.827,2.027L5.2,39.855a1.507,1.507,0,0,0,.284,1.737L9.732,45.84a1.507,1.507,0,0,0,1.737.284l5.746-2.859a21.74,21.74,0,0,0,2.024.826l2.027,6.289A1.507,1.507,0,0,0,22.7,51.424h6.026a1.506,1.506,0,0,0,1.434-1.044l2.027-6.289a21.741,21.741,0,0,0,2.024-.826l5.746,2.859a1.507,1.507,0,0,0,1.737-.284l4.248-4.248a1.507,1.507,0,0,0,.284-1.737l-2.859-5.746a21.737,21.737,0,0,0,.827-2.027l6.194-2.026a1.506,1.506,0,0,0,1.038-1.432V22.6A10.545,10.545,0,0,0,45.684,13.241ZM40.777,3.013a4.52,4.52,0,1,1-4.52,4.52A4.525,4.525,0,0,1,40.777,3.013Zm-15.066,0a4.52,4.52,0,1,1-4.52,4.52A4.525,4.525,0,0,1,25.712,3.013Zm0,12.052A10.562,10.562,0,0,1,36.151,24.1H15.273A10.562,10.562,0,0,1,25.712,15.066Zm0,18.079a7.554,7.554,0,0,0,7.381-6.036H36.15a10.545,10.545,0,0,1-20.876.01h3.057A7.546,7.546,0,0,0,25.712,33.144Zm-4.261-6.036h8.521a4.514,4.514,0,0,1-8.521,0ZM10.646,3.013a4.52,4.52,0,1,1-4.52,4.52A4.525,4.525,0,0,1,10.646,3.013ZM3.013,22.6A7.6,7.6,0,0,1,15.43,16.782,13.505,13.505,0,0,0,12.237,24.1H3.013Zm45.4,4.934-5.872,1.92a1.506,1.506,0,0,0-.965.967A18.648,18.648,0,0,1,40.35,33.4a1.507,1.507,0,0,0-.017,1.376l2.711,5.448-2.716,2.716L34.88,40.232a1.507,1.507,0,0,0-1.376.017,18.647,18.647,0,0,1-2.984,1.224,1.506,1.506,0,0,0-.969.971l-1.923,5.966H23.8l-1.923-5.966a1.507,1.507,0,0,0-.969-.971,18.641,18.641,0,0,1-2.984-1.224,1.507,1.507,0,0,0-1.376-.017L11.1,42.943,8.38,40.227l2.711-5.448a1.507,1.507,0,0,0-.017-1.376A18.65,18.65,0,0,1,9.85,30.42a1.506,1.506,0,0,0-.965-.967l-5.872-1.92v-.414h9.223a13.56,13.56,0,0,0,26.952,0h9.223Zm0-3.427H39.187a13.5,13.5,0,0,0-3.193-7.323A7.6,7.6,0,0,1,48.411,22.6Z"/>
        </g>
      </g>
    </g>
  </g>
</svg>
