<svg xmlns="http://www.w3.org/2000/svg" width="54.794" height="60.234" viewBox="0 0 54.794 60.234">
  <defs>
    <style>
      .cls-1 {
        fill: #a6b5d1;
      }

      .cls-2 {
        fill: #697895;
      }
    </style>
  </defs>
  <g id="Group_677" data-name="Group 677" transform="translate(-118.806 6365.189)">
    <path id="Path_582" data-name="Path 582" class="cls-1" d="M14.748,186.736l3.336,3.335L.5,219.66,8.836,228l3.233-1.921.994.994a10.612,10.612,0,0,0,17.2-11.809l8.158-4.848,3.336,3.335,3-3L17.749,183.734Zm9.093,38.289a6.358,6.358,0,0,1-7.778-.958l-.23-.23,10.74-6.383A6.356,6.356,0,0,1,23.841,225.025ZM9.5,222.661l-3.669-3.669L21.18,193.168l14.147,14.147Zm0,0" transform="translate(118.306 -6535.136)"/>
    <g id="Group_668" data-name="Group 668" transform="translate(145.363 -6365.189)">
      <path id="Path_584" data-name="Path 584" class="cls-2" d="M239.631,153.609l5.177-5.125v-6.015l3.842-3.882-3.016-2.986-5.07,5.122v5.99l-3.919,3.879Zm0,0" transform="translate(-229.789 -128.625)"/>
      <path id="Path_585" data-name="Path 585" class="cls-2" d="M286.042,209.2l-2.053,5.64-4.974,2.319L280.81,221l6.567-3.062,2.053-5.641,4.973-2.319-1.794-3.847Zm0,0" transform="translate(-266.165 -189.177)"/>
      <path id="Path_586" data-name="Path 586" class="cls-2" d="M191.52,86.289l-3.062,6.567,2.053,5.64-2.319,4.974,3.847,1.793L195.1,98.7l-2.053-5.641,2.319-4.974Zm0,0" transform="translate(-188.191 -86.289)"/>
    </g>
  </g>
</svg>
