<svg xmlns="http://www.w3.org/2000/svg" width="72.541" height="54.254" viewBox="0 0 72.541 54.254">
  <defs>
    <style>
      .cls-1 {
        fill: #697895;
      }

      .cls-2 {
        fill: #fafafa;
      }

      .cls-3, .cls-4 {
        fill: #a6b5d1;
      }

      .cls-3 {
        stroke: #a6b5d1;
        stroke-width: 2px;
      }

      .cls-5 {
        fill: #fff;
        font-size: 16px;
        font-family: Poppins-Regular, Poppins;
      }
    </style>
  </defs>
  <g id="Group_2041" data-name="Group 2041" transform="translate(3555.667 21355.254)">
    <path id="Path_617" data-name="Path 617" class="cls-1" d="M45.1,0H32.124a1.3,1.3,0,0,0-.918,2.216l5.57,5.568L18.407,26.49l1.661,1.668L38.611,9.618l5.568,5.568a1.3,1.3,0,0,0,2.216-.916V1.3A1.3,1.3,0,0,0,45.1,0Z" transform="translate(-3534.954 -21340.334) rotate(-14)"/>
    <g id="Group_683" data-name="Group 683" transform="translate(-3536.585 -21341.799)">
      <path id="Path_531" data-name="Path 531" class="cls-2" d="M134.456,156.44a5.946,5.946,0,0,1-6.421-4.783,1.284,1.284,0,0,1,1.171-1.387,1.33,1.33,0,0,1,1.387,1.171c.113,1.338,1.842,2.43,3.853,2.43,2.091,0,3.853-1.176,3.853-2.569,0-1.251-1.218-2.055-3.827-2.54l-.272-.056c-4.164-.76-6.165-2.466-6.165-5.109a6.64,6.64,0,0,1,12.843-.354,1.284,1.284,0,0,1-1.171,1.387,1.338,1.338,0,0,1-1.4-1.171c-.108-1.338-1.837-2.43-3.853-2.43-2.091,0-3.853,1.176-3.853,2.569,0,1.256,1.223,2.055,3.853,2.543l.27.051c4.166.771,6.165,2.476,6.165,5.111A5.908,5.908,0,0,1,134.456,156.44Z" transform="translate(-128.03 -135.892)"/>
      <path id="Path_532" data-name="Path 532" class="cls-2" d="M172.018,140.457a1.284,1.284,0,0,1-1.284-1.284V118.624a1.284,1.284,0,1,1,2.569,0v20.549A1.284,1.284,0,0,1,172.018,140.457Z" transform="translate(-165.592 -117.34)"/>
    </g>
    <path id="Path_618" data-name="Path 618" class="cls-3" d="M14.815,77.366a1.39,1.39,0,0,1-.556-.114A23.622,23.622,0,0,1,33,33.883c11.976,5.174,14.351,19.607,7.928,10.055A20.842,20.842,0,1,0,15.36,74.7a1.39,1.39,0,0,1-.556,2.665Z" transform="translate(-3554.596 -21386.123)"/>
    <g id="Group_684" data-name="Group 684" transform="translate(-3537.917 -21344.141)">
      <path id="Path_536" data-name="Path 536" class="cls-4" d="M134.982,157.915a6.433,6.433,0,0,1-6.947-5.175,1.389,1.389,0,0,1,1.267-1.5,1.423,1.423,0,0,1,1.5,1.267c.122,1.448,1.993,2.629,4.169,2.629,2.262,0,4.169-1.273,4.169-2.779,0-1.356-1.317-2.223-4.141-2.748l-.295-.058c-4.508-.831-6.67-2.676-6.67-5.53a7.185,7.185,0,0,1,13.895-.386,1.389,1.389,0,0,1-1.266,1.5h0a1.423,1.423,0,0,1-1.512-1.267c-.117-1.451-1.987-2.629-4.168-2.629-2.262,0-4.169,1.273-4.169,2.779,0,1.356,1.32,2.223,4.152,2.751l.3.058c4.5.834,6.67,2.676,6.67,5.53A6.392,6.392,0,0,1,134.982,157.915Z" transform="translate(-128.03 -135.683)"/>
      <path id="Path_537" data-name="Path 537" class="cls-4" d="M172.124,142.351a1.39,1.39,0,0,1-1.39-1.39V118.73a1.39,1.39,0,1,1,2.779,0v22.232A1.39,1.39,0,0,1,172.124,142.351Z" transform="translate(-165.171 -117.34)"/>
    </g>
    <g id="Group_690" data-name="Group 690" transform="translate(-3464 -14855)">
      <circle id="Ellipse_39" data-name="Ellipse 39" class="cls-1" cx="12" cy="12" r="12" transform="translate(-63 -6470)"/>
      <text id="P" class="cls-5" transform="translate(-51 -6452)"><tspan x="-4.568" y="0">P</tspan></text>
    </g>
  </g>
</svg>
