<svg xmlns="http://www.w3.org/2000/svg" width="43.006" height="47.219" viewBox="0 0 43.006 47.219">
  <defs>
    <style>
      .cls-1 {
        fill: #a6b5d1;
      }

      .cls-2 {
        fill: #fff;
      }

      .cls-3 {
        fill: #697895;
      }
    </style>
  </defs>
  <g id="Group_2040" data-name="Group 2040" transform="translate(3166 21351.623)">
    <g id="tactic" transform="translate(-3219.795 -21351.623)">
      <circle id="Ellipse_29" data-name="Ellipse 29" class="cls-1" cx="2.164" cy="2.164" r="2.164" transform="translate(69.697 34.43)"/>
      <path id="Path_522" data-name="Path 522" class="cls-1" d="M95.317,31.488A5.039,5.039,0,0,0,91.728,30H90.81v1.845a3.693,3.693,0,0,1-3.689,3.689h-16.6a3.693,3.693,0,0,1-3.689-3.689V30h-.926a5.079,5.079,0,0,0-5.072,5.067l-.038,34.308a5.072,5.072,0,0,0,5.072,5.078H91.69a5.079,5.079,0,0,0,5.072-5.067L96.8,35.078A5.039,5.039,0,0,0,95.317,31.488ZM82.384,41.175a1.383,1.383,0,0,1,1.956-1.956L86.623,41.5l2.282-2.282a1.383,1.383,0,0,1,1.956,1.956L88.58,43.458l2.282,2.282A1.383,1.383,0,1,1,88.906,47.7l-2.282-2.282L84.341,47.7a1.383,1.383,0,1,1-1.956-1.956l2.282-2.282ZM70.033,39.654a1.384,1.384,0,0,1,1.956,0l3.272,3.272a1.383,1.383,0,1,1-1.956,1.956l-.9-.9v4.778a4.172,4.172,0,0,0,2.676,3.879l8.041,3.055a6.954,6.954,0,0,1,4.46,6.466v5.378a1.383,1.383,0,1,1-2.767,0V62.158a4.172,4.172,0,0,0-2.676-3.879L74.1,55.223a6.954,6.954,0,0,1-4.46-6.466V43.965l-.9.9a1.383,1.383,0,0,1-1.956-1.956Z" transform="translate(0 -27.233)"/>
      <path id="Path_523" data-name="Path 523" class="cls-1" d="M156.25,4.611a.922.922,0,0,0,.922.922h16.6a.922.922,0,0,0,.922-.922V.922A.922.922,0,0,0,173.773,0h-16.6a.922.922,0,0,0-.922.922Z" transform="translate(-86.652)"/>
    </g>
    <circle id="Ellipse_43" data-name="Ellipse 43" class="cls-2" cx="8" cy="8" r="8" transform="translate(-3166 -21325)"/>
    <circle id="Ellipse_44" data-name="Ellipse 44" class="cls-3" cx="5" cy="5" r="5" transform="translate(-3163 -21322)"/>
  </g>
</svg>
