<svg xmlns="http://www.w3.org/2000/svg" width="131" height="131" viewBox="0 0 131 131">
  <defs>
    <style>
      .cls-1 {
        fill: #8695b1;
      }
    </style>
  </defs>
  <g id="formula" transform="translate(-1 -1)">
    <path id="Path_1612" data-name="Path 1612" class="cls-1" d="M49.371,29H7.113A2.111,2.111,0,0,0,5,31.113V56.468a2.111,2.111,0,0,0,2.113,2.113H49.371a2.111,2.111,0,0,0,2.113-2.113V31.113A2.111,2.111,0,0,0,49.371,29ZM47.258,54.355H9.226V33.226H47.258Z" transform="translate(4.452 31.161)"/>
    <path id="Path_1613" data-name="Path 1613" class="cls-1" d="M15.565,45H7.113A2.111,2.111,0,0,0,5,47.113v8.452a2.111,2.111,0,0,0,2.113,2.113h8.452a2.111,2.111,0,0,0,2.113-2.113V47.113A2.111,2.111,0,0,0,15.565,45Zm-2.113,8.452H9.226V49.226h4.226Z" transform="translate(4.452 48.968)"/>
    <path id="Path_1614" data-name="Path 1614" class="cls-1" d="M23.565,45H15.113A2.111,2.111,0,0,0,13,47.113v8.452a2.111,2.111,0,0,0,2.113,2.113h8.452a2.111,2.111,0,0,0,2.113-2.113V47.113A2.111,2.111,0,0,0,23.565,45Zm-2.113,8.452H17.226V49.226h4.226Z" transform="translate(13.355 48.968)"/>
    <path id="Path_1615" data-name="Path 1615" class="cls-1" d="M23.565,53H15.113A2.111,2.111,0,0,0,13,55.113v8.452a2.111,2.111,0,0,0,2.113,2.113h8.452a2.111,2.111,0,0,0,2.113-2.113V55.113A2.111,2.111,0,0,0,23.565,53Zm-2.113,8.452H17.226V57.226h4.226Z" transform="translate(13.355 57.871)"/>
    <path id="Path_1616" data-name="Path 1616" class="cls-1" d="M31.565,45H23.113A2.111,2.111,0,0,0,21,47.113v8.452a2.111,2.111,0,0,0,2.113,2.113h8.452a2.111,2.111,0,0,0,2.113-2.113V47.113A2.111,2.111,0,0,0,31.565,45Zm-2.113,8.452H25.226V49.226h4.226Z" transform="translate(22.258 48.968)"/>
    <path id="Path_1617" data-name="Path 1617" class="cls-1" d="M31.565,53H23.113A2.111,2.111,0,0,0,21,55.113v8.452a2.111,2.111,0,0,0,2.113,2.113h8.452a2.111,2.111,0,0,0,2.113-2.113V55.113A2.111,2.111,0,0,0,31.565,53Zm-2.113,8.452H25.226V57.226h4.226Z" transform="translate(22.258 57.871)"/>
    <path id="Path_1618" data-name="Path 1618" class="cls-1" d="M15.565,53H7.113A2.111,2.111,0,0,0,5,55.113v8.452a2.111,2.111,0,0,0,2.113,2.113h8.452a2.111,2.111,0,0,0,2.113-2.113V55.113A2.111,2.111,0,0,0,15.565,53Zm-2.113,8.452H9.226V57.226h4.226Z" transform="translate(4.452 57.871)"/>
    <path id="Path_1619" data-name="Path 1619" class="cls-1" d="M13.226,45.677h4.226V41.452h4.226V37.226H17.452V33H13.226v4.226H9v4.226h4.226Z" transform="translate(8.903 35.613)"/>
    <path id="Path_1620" data-name="Path 1620" class="cls-1" d="M17,35H29.677v4.226H17Z" transform="translate(17.806 37.839)"/>
    <path id="Path_1621" data-name="Path 1621" class="cls-1" d="M129.887,1H41.145a2.111,2.111,0,0,0-2.113,2.113v48.6H7.339A6.346,6.346,0,0,0,1,58.048v67.613A6.346,6.346,0,0,0,7.339,132h50.71a6.346,6.346,0,0,0,6.339-6.339v-2.113h65.5A2.111,2.111,0,0,0,132,121.435V3.113A2.111,2.111,0,0,0,129.887,1ZM60.161,125.661a2.114,2.114,0,0,1-2.113,2.113H7.339a2.114,2.114,0,0,1-2.113-2.113V58.048a2.114,2.114,0,0,1,2.113-2.113h50.71a2.114,2.114,0,0,1,2.113,2.113Zm4.226-19.016H115.1v-4.226H64.387V98.194H115.1V93.968H64.387v-9.69l4.845,4.845a2.112,2.112,0,0,0,1.494.619,2.147,2.147,0,0,0,.564-.076,2.112,2.112,0,0,0,1.485-1.526l3.826-15.3h34.269V68.613H74.952a2.113,2.113,0,0,0-2.05,1.6L69.581,83.5l-3.7-3.7a2.1,2.1,0,0,0-1.494-.619V64.387h54.935v46.484H64.387Zm63.387,12.677H64.387V115.1h57.048a2.111,2.111,0,0,0,2.113-2.113V62.274a2.111,2.111,0,0,0-2.113-2.113H64.387V58.048a6.346,6.346,0,0,0-6.339-6.339H43.258V5.226h84.516Z" transform="translate(0 0)"/>
    <path id="Path_1622" data-name="Path 1622" class="cls-1" d="M36.339,34.581a6.337,6.337,0,1,0,5.84,3.873l8.1-6.753a6.1,6.1,0,0,0,5.92,0l8.1,6.753a6.5,6.5,0,1,0,2.88-3.106l-8.1-6.753a6.346,6.346,0,0,0,0-4.932l8.1-6.753a6.261,6.261,0,0,0,2.96.767,6.337,6.337,0,1,0-5.84-3.873l-8.1,6.753a6.1,6.1,0,0,0-5.92,0l-8.1-6.753A6.5,6.5,0,1,0,39.3,16.91l8.1,6.753a6.346,6.346,0,0,0,0,4.932l-8.1,6.753A6.262,6.262,0,0,0,36.339,34.581Zm0,8.452a2.113,2.113,0,1,1,2.113-2.113A2.114,2.114,0,0,1,36.339,43.032Zm35.919-2.113a2.113,2.113,0,1,1-2.113-2.113A2.114,2.114,0,0,1,72.258,40.919ZM70.145,9.226a2.113,2.113,0,1,1-2.113,2.113A2.114,2.114,0,0,1,70.145,9.226Zm-14.79,16.9a2.113,2.113,0,1,1-2.113-2.113A2.114,2.114,0,0,1,55.355,26.129ZM34.226,11.339a2.113,2.113,0,1,1,2.113,2.113A2.114,2.114,0,0,1,34.226,11.339Z" transform="translate(32.274 4.452)"/>
    <path id="Path_1623" data-name="Path 1623" class="cls-1" d="M38,39h8.452v4.226H38Z" transform="translate(41.177 42.29)"/>
    <path id="Path_1624" data-name="Path 1624" class="cls-1" d="M52.452,37H48.226v4.226H44v4.226h4.226v4.226h4.226V45.452h4.226V41.226H52.452Z" transform="translate(47.855 40.065)"/>
  </g>
</svg>
