<svg xmlns="http://www.w3.org/2000/svg" width="99.285" height="138.558" viewBox="0 0 99.285 138.558">
  <defs>
    <style>
      .cls-1 {
        fill: #8695b1;
        stroke: #8695b1;
        stroke-width: 2px;
      }
    </style>
  </defs>
  <g id="surface1" transform="translate(0.727 1.011)">
    <path id="Path_1501" data-name="Path 1501" class="cls-1" d="M.273,18.625V130.7a5.867,5.867,0,0,0,5.848,5.848h85.59a5.857,5.857,0,0,0,5.848-5.848V18.625a5.852,5.852,0,0,0-5.848-5.848H63.289a14.471,14.471,0,0,0-28.742,0H6.121A5.854,5.854,0,0,0,.273,18.625ZM93.816,130.7a2.112,2.112,0,0,1-2.113,2.113H6.121A2.112,2.112,0,0,1,4.008,130.7V36.688H93.832Zm-44.9-127a10.749,10.749,0,0,1,10.6,9.082H38.367A10.745,10.745,0,0,1,48.918,3.7ZM91.711,16.5a2.123,2.123,0,0,1,2.121,2.121V32.953H4.008V18.625A2.119,2.119,0,0,1,6.121,16.5Zm0,0"/>
    <path id="Path_1502" data-name="Path 1502" class="cls-1" d="M37.969,57.25H82.086a1.865,1.865,0,0,0,0-3.73H37.969a1.865,1.865,0,0,0,0,3.73Zm0,0"/>
    <path id="Path_1503" data-name="Path 1503" class="cls-1" d="M37.969,76.723H82.086a1.867,1.867,0,0,0,0-3.734H37.969a1.867,1.867,0,0,0,0,3.734Zm0,0"/>
    <path id="Path_1504" data-name="Path 1504" class="cls-1" d="M37.969,96.18H82.086a1.867,1.867,0,0,0,0-3.734H37.969a1.867,1.867,0,0,0,0,3.734Zm0,0"/>
    <path id="Path_1505" data-name="Path 1505" class="cls-1" d="M37.969,115.633H82.086a1.863,1.863,0,1,0,0-3.727H37.969a1.863,1.863,0,1,0,0,3.727Zm0,0"/>
    <path id="Path_1506" data-name="Path 1506" class="cls-1" d="M19.359,58.293a1.868,1.868,0,0,0,1.242.773h.277a1.869,1.869,0,0,0,1.145-.4L33.91,49.379a1.865,1.865,0,1,0-1.863-3.23,1.8,1.8,0,0,0-.422.328l-10.34,8.09-1.8-2.574a1.866,1.866,0,1,0-3.059,2.137Zm0,0"/>
    <path id="Path_1507" data-name="Path 1507" class="cls-1" d="M19.359,77.477a1.873,1.873,0,0,0,1.242.777h.277a1.9,1.9,0,0,0,1.145-.4L33.91,68.559a1.863,1.863,0,1,0-2.211-3c-.027.02-.059.043-.086.066l-10.328,8.1-1.8-2.574a1.865,1.865,0,1,0-3.336,1.668,1.782,1.782,0,0,0,.277.406Zm0,0"/>
    <path id="Path_1508" data-name="Path 1508" class="cls-1" d="M19.359,96.715a1.878,1.878,0,0,0,1.242.77h.277a1.869,1.869,0,0,0,1.145-.4L33.91,87.793a1.865,1.865,0,1,0-2.211-3c-.027.023-.059.043-.086.066L21.273,92.93l-1.8-2.574A1.868,1.868,0,1,0,16.41,92.5Zm0,0"/>
    <path id="Path_1509" data-name="Path 1509" class="cls-1" d="M19.359,116.172a1.883,1.883,0,0,0,1.242.773h.277a1.972,1.972,0,0,0,1.145-.4l11.887-9.3a1.865,1.865,0,1,0-1.988-3.156,1.7,1.7,0,0,0-.3.234l-10.34,8.086-1.8-2.574a1.866,1.866,0,0,0-3.059,2.137Zm0,0"/>
  </g>
</svg>
